<svg xmlns:dc="http://purl.org/dc/elements/1.1/" xmlns:cc="http://creativecommons.org/ns#" xmlns:rdf="http://www.w3.org/1999/02/22-rdf-syntax-ns#" xmlns:svg="http://www.w3.org/2000/svg" xmlns="http://www.w3.org/2000/svg" xmlns:sodipodi="http://sodipodi.sourceforge.net/DTD/sodipodi-0.dtd" xmlns:inkscape="http://www.inkscape.org/namespaces/inkscape" width="700px" height="500px" viewBox="-350 -250 700 500" id="svg2" sodipodi:version="0.32" inkscape:version="0.46" sodipodi:docname="Flag of Albania.svg" inkscape:output_extension="org.inkscape.output.svg.inkscape">
  <metadata id="metadata14">
    <rdf:RDF>
      <cc:Work rdf:about="">
        <dc:format>image/svg+xml</dc:format>
        <dc:type rdf:resource="http://purl.org/dc/dcmitype/StillImage"></dc:type>
      </cc:Work>
    </rdf:RDF>
  </metadata>
  <defs id="defs12">
    <inkscape:perspective sodipodi:type="inkscape:persp3d" inkscape:vp_x="0 : 250 : 1" inkscape:vp_y="0 : 1000 : 0" inkscape:vp_z="700 : 250 : 1" inkscape:persp3d-origin="350 : 166.66667 : 1" id="perspective16"></inkscape:perspective>
  </defs>
  <sodipodi:namedview inkscape:window-height="750" inkscape:window-width="1280" inkscape:pageshadow="2" inkscape:pageopacity="0.0" guidetolerance="10.0" gridtolerance="10.0" objecttolerance="10.0" borderopacity="1.0" bordercolor="#666666" pagecolor="#ffffff" id="base" showgrid="false" inkscape:zoom="0.77714286" inkscape:cx="350" inkscape:cy="250" inkscape:window-x="-8" inkscape:window-y="-8" inkscape:current-layer="svg2"></sodipodi:namedview>
  <title id="title4">Flag of Albania</title>
  <rect id="field" x="-50%" y="-50%" width="100%" height="100%" fill="#ce1126"></rect>
  <path style="fill:#000000" d="M 297.15625 95.875 C 295.7177 95.91675 294.52999 96.14837 293.71875 96.59375 C 293.01886 96.97551 291.88851 97.80011 291.125 98.5 C 290.10698 99.39077 288.55323 99.71537 283.78125 99.90625 C 276.97325 100.09713 274.24578 101.19707 272.71875 104.1875 C 271.63711 106.28716 271.64135 106.45014 270.9375 108.21875 C 274.09568 107.31858 277.87584 106.02562 279.59375 106.34375 C 281.94792 106.85275 284.5 108.29673 284.5 109.1875 C 284.5 109.50564 283.73452 110.26999 282.84375 110.90625 C 280.20725 111.55444 279.34514 111.55444 274.6875 110.90625 C 268.57937 109.95185 268.12979 109.75929 266.09375 107.46875 C 264.94847 106.1326 263.29702 104.29927 262.40625 103.28125 C 260.62472 101.30885 258.07827 101.00084 257.1875 102.71875 C 256.29673 104.30941 258.59542 106.61233 262.03125 109.09375 C 265.02168 111.25704 267.12302 112.77111 272.53125 113.34375 C 274.21735 113.53461 287.08249 113.4779 287.71875 113.84375 C 288.35503 114.20961 281.10053 117.31058 273.875 115.15625 C 275.59291 118.65569 282.78123 121.36374 289.84375 122 C 297.73341 122.76354 303.15088 124.46593 308.75 128.15625 C 314.66724 132.03746 317.7652 135.46227 320.4375 141.125 C 323.17343 146.72416 324.13063 151.43325 323.8125 156.96875 C 323.43074 163.77679 320.1985 167.28125 314.28125 167.28125 C 310.20917 167.28128 308.59741 166.51718 306.625 163.78125 C 305.35246 161.87249 305.18863 161.0034 305.125 153.75 C 305.125 146.94202 304.86402 145.41443 303.71875 143.1875 C 301.42821 138.67008 298.1712 136.56081 288.5 133.125 C 283.66439 131.40709 277.18133 128.93103 274 127.53125 C 267.63738 124.85893 267.37078 124.92342 265.84375 129.25 C 265.33474 130.71343 264.44765 131.8415 263.875 131.96875 C 262.02984 132.35053 252.17174 128.99156 246 125.9375 C 235.37441 120.59288 229.84685 115.8708 224.375 107.28125 C 221.13005 102.19116 218.77506 100.73422 215.59375 101.625 C 211.96705 102.64301 209.93863 105.76154 209.875 110.40625 C 209.81137 114.47836 211.78378 117.85302 216.9375 122.625 C 225.6543 130.70553 241.93858 138.08446 256 140.375 C 260.64471 141.07493 262.875 142.85443 262.875 145.78125 C 262.875 150.04423 258.23173 151.78012 246.90625 151.84375 C 236.28066 151.84377 229.58813 149.2154 222.84375 142.34375 C 218.51715 137.82633 216.98705 137.1371 214.1875 138.21875 C 212.78772 138.79141 211.3125 141.83331 211.3125 144.1875 C 211.31249 149.02313 217.69649 156.79082 224.25 159.78125 C 229.14922 162.07182 233.64836 162.84938 241.15625 162.53125 C 246.75537 162.3404 248.85302 161.87416 253.625 160.15625 C 263.16893 156.65685 264.01098 156.54223 265.15625 157.6875 C 266.04702 158.5783 266.04814 158.84009 265.09375 160.8125 C 263.43945 163.99385 257.18919 169.90484 253.5625 171.75 C 244.90932 176.14025 236.406 175.18188 224.0625 168.4375 C 217.76349 165.00171 214.43891 164.88455 212.59375 167.875 C 211.89386 169.02031 211.3125 170.73311 211.3125 171.6875 C 211.31249 174.10534 214.50703 177.54643 219.40625 180.21875 C 225.70526 183.78185 230.15172 184.90625 237.46875 184.90625 C 244.02227 184.90628 248.15932 183.90907 256.8125 180.21875 C 261.20271 178.37362 262.97971 178.16498 264.125 179.4375 C 265.20664 180.83731 263.31982 184.52391 259.375 188.46875 C 253.45777 194.38602 241.67315 198.85726 233.65625 198.09375 C 231.36569 197.90291 228.57517 196.99015 226.09375 195.78125 C 221.00363 193.23623 216.47804 193.05208 214.1875 195.40625 C 211.26069 198.26947 212.41779 202.74268 217.0625 206.6875 C 220.11656 209.35982 223.28716 210.375 228.25 210.375 C 233.84912 210.37502 237.28938 209.16949 249.1875 203.125 C 260.0676 197.65317 262.61374 196.81222 263.25 198.59375 C 264.01353 200.43894 261.97636 203.55264 256.25 209.40625 C 244.47914 221.3044 237.78888 223.65006 225 220.46875 C 215.96506 218.17822 212.86599 219.73337 213.375 225.96875 C 213.75676 230.35897 215.20805 232.43159 219.34375 234.53125 C 222.01607 235.93106 223.28265 236.125 228.5 236.125 C 233.39923 236.06139 235.11008 235.80152 237.71875 234.65625 C 242.23621 232.55661 252.18213 225.77422 257.78125 220.875 C 264.6529 214.83053 267.3125 213.66582 267.3125 216.65625 C 267.3125 219.58309 256.11827 234.98451 249.4375 241.15625 C 246.89245 243.51046 243.07294 246.26098 240.71875 247.40625 C 236.83755 249.31507 235.99974 249.50113 230.71875 249.4375 C 227.60107 249.43753 222.98144 249.31588 220.5 249.125 C 215.02814 248.80691 213.25 249.87329 213.25 253.5 C 213.25 256.87223 218.00476 261.38033 223.03125 262.84375 C 233.40234 265.89779 244.72097 260.62728 258.71875 246.375 C 269.08984 235.81305 270.57686 236.4645 264.46875 249.0625 C 257.97886 262.55131 249.74355 272.14778 241.28125 276.15625 C 236.89104 278.19225 235.76411 278.32151 224.375 277.8125 C 219.34851 277.55794 217.0625 278.88232 217.0625 282 C 217.0625 283.59065 217.62472 284.68722 219.40625 286.46875 C 225.89614 292.95861 236.65003 293.20074 247.59375 287.15625 C 253.76551 283.72041 268.78995 267.25313 277.125 254.71875 C 281.57883 248.03803 282.72297 247.20833 284.25 249.5625 C 285.20441 250.9623 285.26015 251.72718 284.6875 254.78125 C 282.90596 264.19798 278.40177 271.3899 271.59375 275.84375 C 267.20354 278.64325 266.17286 280.29758 267 282.90625 C 268.01802 286.15116 274.24491 287.72241 278.0625 285.75 C 282.57996 283.45943 288.30714 274.8224 293.90625 261.90625 C 297.91472 252.68044 298.18384 252.34375 300.15625 252.34375 C 305.30997 252.34378 303.51774 263.18524 297.21875 270.375 C 294.41918 273.55627 293.96507 275.71847 295.9375 277.5 C 297.59178 279.02702 300.07854 278.4558 304.46875 275.65625 C 308.54084 273.04755 310.75957 270.41498 313.75 264.625 C 317.50396 257.43519 319.05407 259.29558 316 267.3125 C 311.73704 278.76519 301.53466 288.9341 287.21875 296.1875 C 284.99182 297.2691 283.21875 298.37162 283.21875 298.5625 C 283.21875 298.75337 284.50308 300.40709 286.09375 302.125 C 287.68441 303.90649 288.9375 305.49437 288.9375 305.8125 C 288.9375 306.44874 280.24496 310.39893 269.9375 314.34375 L 260.6875 317.90625 L 255.9375 314.90625 C 249.38399 310.89775 245.76351 307.91104 245 305.875 C 243.47297 301.93011 238.56419 299.32123 234.9375 300.59375 C 233.66497 301.0391 232.13656 300.98001 229.71875 300.34375 C 224.11965 298.88032 220.7183 303.34151 219.84375 305.65625 C 221.78038 305.94426 220.85078 305.87613 222.21875 305.8125 C 227.94511 305.55798 228.51858 305.7362 231 308.28125 C 233.60869 310.95351 237.1067 312.29026 239.90625 311.78125 C 241.17877 311.52669 242.83643 312.23508 246.78125 314.84375 C 249.70805 316.68891 252.0625 318.40175 252.0625 318.65625 C 252.0625 319.29246 249.07069 319.29476 239.78125 318.53125 C 233.16413 318.0222 232.06166 317.77478 230.34375 316.375 C 227.73507 314.14806 224.73818 313.6951 221.875 315.03125 C 220.60245 315.66748 218.34065 316.18637 216.75 316.25 C 215.0321 316.31363 213.2379 316.86149 212.15625 317.625 C 210.31108 319.02477 209.06776 319.74563 208.21875 322.53125 C 211.67444 322.47358 210.54981 322.47438 213.03125 322.15625 C 217.29421 321.51999 217.7576 321.57235 219.09375 322.78125 C 219.92089 323.48111 221.17397 324.46199 221.9375 324.84375 C 223.84629 325.79814 228.24409 325.70777 230.34375 324.5625 C 231.6799 323.92619 234.68974 323.68863 241.625 323.625 C 246.84237 323.56134 251.40062 323.56137 251.71875 323.625 C 252.1005 323.62496 250.01943 325.03208 247.15625 326.75 C 242.25701 329.74042 241.79308 329.84488 237.59375 329.78125 C 231.99463 329.71759 228.82827 331.37443 227.9375 334.9375 C 227.61937 336.20997 227.03801 338.50647 226.65625 339.90625 C 225.76548 343.27841 225.4269 343.79944 227.90625 349.625 C 230.61641 343.24228 229.70411 345.17765 230.53125 343.96875 C 231.8674 341.9963 232.38119 341.692 235.5625 341.4375 C 239.95271 341.0557 242.00195 339.71821 243.65625 336.21875 C 244.73789 333.8009 245.92764 332.78294 251.78125 329.15625 C 259.79817 324.19339 259.30881 324.2069 268.34375 328.40625 C 272.79758 330.50589 274.45522 331.56785 275.21875 333.03125 C 276.5549 335.70352 279.41244 336.73564 282.59375 335.78125 C 285.5842 334.89048 286.90146 335.38681 288.9375 338.25 C 289.79644 339.49069 289.85358 339.24633 291.125 340.40625 C 291.48115 338.62421 291.5 338.3753 291.5 336.59375 C 291.5 333.98506 291.18469 333.46706 287.8125 330.03125 C 283.86766 326.08637 281.45693 325.0121 278.59375 326.09375 C 277.2576 326.60278 276.15458 326.43442 272.71875 324.84375 C 268.90118 323.12584 267.43384 321.71875 269.40625 321.71875 C 269.78801 321.71874 275.96874 319.42343 283.03125 316.6875 L 295.875 311.71875 L 297.78125 313.25 C 301.28069 315.98591 306.8322 318.53125 309.25 318.53125 C 311.47692 318.5312 311.73761 318.35304 312.4375 316.0625 C 313.51915 312.43577 320.9603 298.10813 324.96875 292 C 331.64952 281.69249 335.32205 279.00394 338.3125 282.3125 C 339.26689 283.3941 339.53238 284.61768 339.46875 288.5625 C 339.3415 300.2061 332.71681 315.41045 324 324 C 319.41891 328.58105 314.38936 331.07798 308.28125 331.96875 C 303.57289 332.605 300.40625 333.7911 300.40625 335 C 300.40625 336.27249 303.52759 339.98198 305.5 341 C 307.21792 341.89072 308.87331 342.06475 312.5 341.9375 C 316.89021 341.74662 317.70692 341.5138 321.90625 338.96875 C 326.04195 336.4873 326.67286 336.26659 327.5 337.09375 C 328.32716 337.92087 328.38626 338.52196 327.75 340.8125 C 326.41384 345.77533 322.86517 348.04448 314.59375 349.0625 C 306.13145 350.14413 303.26295 352.71143 306.0625 356.65625 C 307.90767 359.20129 311.07854 360.53125 315.46875 360.53125 C 320.43161 360.53121 324.71225 358.34462 330.375 353 C 332.7928 350.77307 335.02449 349.1205 335.40625 349.375 C 336.29702 349.88395 336.23564 354.97605 335.28125 358.09375 C 334.39048 361.08413 330.38655 365.79561 327.96875 366.75 C 327.01434 367.13174 324.56616 367.89724 322.59375 368.40625 C 315.65848 370.31501 314.66327 373.00506 319.5625 376.25 C 322.74381 378.34962 328.02505 378.53266 331.90625 376.6875 C 334.4513 375.54219 341.4451 368.97919 342.78125 366.625 C 343.92652 364.52532 345.13176 366.0698 344.75 369.1875 C 344.4955 371.79612 342.96706 374.72689 339.53125 379.5625 C 336.73168 383.38007 337.69677 388.53235 342.46875 395.53125 C 345.01423 399.28475 347.4259 402.14089 349 403.4375 C 349.15499 403.56517 349.2996 403.71641 349.4375 403.8125 C 349.46556 403.83297 349.50392 403.85582 349.53125 403.875 C 349.69415 403.9822 349.86545 404.06783 350 404.125 C 350.13655 404.06697 350.30096 403.99277 350.46875 403.875 C 350.50325 403.8523 350.5268 403.83738 350.5625 403.8125 C 350.70668 403.70728 350.83903 403.57009 351 403.4375 C 352.5741 402.14089 354.98577 399.28475 357.53125 395.53125 C 362.30323 388.53235 363.26832 383.38007 360.46875 379.5625 C 357.03294 374.72689 355.5045 371.79612 355.25 369.1875 C 354.86824 366.0698 356.07348 364.52532 357.21875 366.625 C 358.5549 368.97919 365.5487 375.54219 368.09375 376.6875 C 371.97495 378.53266 377.25619 378.34962 380.4375 376.25 C 385.33673 373.00506 384.34152 370.31501 377.40625 368.40625 C 375.43384 367.89724 372.98566 367.13174 372.03125 366.75 C 369.61345 365.79561 365.60952 361.08413 364.71875 358.09375 C 363.76436 354.97605 363.70298 349.88395 364.59375 349.375 C 364.97551 349.1205 367.2072 350.77307 369.625 353 C 375.28775 358.34462 379.56839 360.53121 384.53125 360.53125 C 388.92146 360.53125 392.09233 359.20129 393.9375 356.65625 C 396.73705 352.71143 393.86855 350.14413 385.40625 349.0625 C 377.13483 348.04448 373.58616 345.77533 372.25 340.8125 C 371.61374 338.52196 371.67284 337.92087 372.5 337.09375 C 373.32714 336.26659 373.95805 336.4873 378.09375 338.96875 C 382.29308 341.5138 383.10979 341.74662 387.5 341.9375 C 391.12669 342.06475 392.78208 341.89072 394.5 341 C 396.47241 339.98198 399.59375 336.27249 399.59375 335 C 399.59375 333.7911 396.42711 332.605 391.71875 331.96875 C 385.61064 331.07798 380.58109 328.58105 376 324 C 367.28319 315.41045 360.6585 300.2061 360.53125 288.5625 C 360.46762 284.61768 360.73311 283.3941 361.6875 282.3125 C 364.67795 279.00394 368.35048 281.69249 375.03125 292 C 379.0397 298.10813 386.48085 312.43577 387.5625 316.0625 C 388.26239 318.35304 388.52308 318.5312 390.75 318.53125 C 393.1678 318.53125 398.71931 315.98591 402.21875 313.25 L 404.125 311.71875 L 416.96875 316.6875 C 424.03126 319.42343 430.21199 321.71874 430.59375 321.71875 C 432.56616 321.71875 431.09882 323.12584 427.28125 324.84375 C 423.84542 326.43442 422.7424 326.60278 421.40625 326.09375 C 418.54307 325.0121 416.13234 326.08637 412.1875 330.03125 C 408.81531 333.46706 408.5 333.98506 408.5 336.59375 C 408.5 338.3753 408.51885 338.62421 408.875 340.40625 C 410.14642 339.24633 410.20356 339.49069 411.0625 338.25 C 413.09854 335.38681 414.4158 334.89048 417.40625 335.78125 C 420.58756 336.73564 423.4451 335.70352 424.78125 333.03125 C 425.54478 331.56785 427.20242 330.50589 431.65625 328.40625 C 440.69119 324.2069 440.20183 324.19339 448.21875 329.15625 C 454.07236 332.78294 455.26211 333.8009 456.34375 336.21875 C 457.99805 339.71821 460.04729 341.0557 464.4375 341.4375 C 467.61881 341.692 468.1326 341.9963 469.46875 343.96875 C 470.29589 345.17765 469.38359 343.24228 472.09375 349.625 C 474.5731 343.79944 474.23452 343.27841 473.34375 339.90625 C 472.96199 338.50647 472.38063 336.20997 472.0625 334.9375 C 471.17173 331.37443 468.00537 329.71759 462.40625 329.78125 C 458.20692 329.84488 457.74299 329.74042 452.84375 326.75 C 449.98057 325.03208 447.8995 323.62496 448.28125 323.625 C 448.59938 323.56137 453.15763 323.56134 458.375 323.625 C 465.31026 323.68863 468.3201 323.92619 469.65625 324.5625 C 471.75591 325.70777 476.15371 325.79814 478.0625 324.84375 C 478.82603 324.46199 480.07911 323.48111 480.90625 322.78125 C 482.2424 321.57235 482.70579 321.51999 486.96875 322.15625 C 489.45019 322.47438 488.32556 322.47358 491.78125 322.53125 C 490.93224 319.74563 489.68892 319.02477 487.84375 317.625 C 486.7621 316.86149 484.9679 316.31363 483.25 316.25 C 481.65935 316.18637 479.39755 315.66748 478.125 315.03125 C 475.26182 313.6951 472.26493 314.14806 469.65625 316.375 C 467.93834 317.77478 466.83587 318.0222 460.21875 318.53125 C 450.92931 319.29476 447.9375 319.29246 447.9375 318.65625 C 447.9375 318.40175 450.29195 316.68891 453.21875 314.84375 C 457.16357 312.23508 458.82123 311.52669 460.09375 311.78125 C 462.8933 312.29026 466.39131 310.95351 469 308.28125 C 471.48142 305.7362 472.05489 305.55798 477.78125 305.8125 C 479.14922 305.87613 478.21962 305.94426 480.15625 305.65625 C 479.2817 303.34151 475.88035 298.88032 470.28125 300.34375 C 467.86344 300.98001 466.33503 301.0391 465.0625 300.59375 C 461.43581 299.32123 456.52703 301.93011 455 305.875 C 454.23649 307.91104 450.61601 310.89775 444.0625 314.90625 L 439.3125 317.90625 L 430.0625 314.34375 C 419.75504 310.39893 411.0625 306.44874 411.0625 305.8125 C 411.0625 305.49437 412.31559 303.90649 413.90625 302.125 C 415.49692 300.40709 416.78125 298.75337 416.78125 298.5625 C 416.78125 298.37162 415.00818 297.2691 412.78125 296.1875 C 398.46534 288.9341 388.26296 278.76519 384 267.3125 C 380.94593 259.29558 382.49604 257.43519 386.25 264.625 C 389.24043 270.41498 391.45916 273.04755 395.53125 275.65625 C 399.92146 278.4558 402.40822 279.02702 404.0625 277.5 C 406.03493 275.71847 405.58082 273.55627 402.78125 270.375 C 396.48226 263.18524 394.69003 252.34378 399.84375 252.34375 C 401.81616 252.34375 402.08528 252.68044 406.09375 261.90625 C 411.69286 274.8224 417.42004 283.45943 421.9375 285.75 C 425.75509 287.72241 431.98198 286.15116 433 282.90625 C 433.82714 280.29758 432.79646 278.64325 428.40625 275.84375 C 421.59823 271.3899 417.09404 264.19798 415.3125 254.78125 C 414.73985 251.72718 414.79559 250.9623 415.75 249.5625 C 417.27703 247.20833 418.42117 248.03803 422.875 254.71875 C 431.21005 267.25313 446.23449 283.72041 452.40625 287.15625 C 463.34997 293.20074 474.10386 292.95861 480.59375 286.46875 C 482.37528 284.68722 482.9375 283.59065 482.9375 282 C 482.9375 278.88232 480.65149 277.55794 475.625 277.8125 C 464.23589 278.32151 463.10896 278.19225 458.71875 276.15625 C 450.25645 272.14778 442.02114 262.55131 435.53125 249.0625 C 429.42314 236.4645 430.91016 235.81305 441.28125 246.375 C 455.27903 260.62728 466.59766 265.89779 476.96875 262.84375 C 481.99524 261.38033 486.75 256.87223 486.75 253.5 C 486.75 249.87329 484.97186 248.80691 479.5 249.125 C 477.01856 249.31588 472.39893 249.43753 469.28125 249.4375 C 464.00026 249.50113 463.16245 249.31507 459.28125 247.40625 C 456.92706 246.26098 453.10755 243.51046 450.5625 241.15625 C 443.88173 234.98451 432.6875 219.58309 432.6875 216.65625 C 432.6875 213.66582 435.3471 214.83053 442.21875 220.875 C 447.81787 225.77422 457.76379 232.55661 462.28125 234.65625 C 464.88992 235.80152 466.60077 236.06139 471.5 236.125 C 476.71735 236.125 477.98393 235.93106 480.65625 234.53125 C 484.79195 232.43159 486.24324 230.35897 486.625 225.96875 C 487.13401 219.73337 484.03494 218.17822 475 220.46875 C 462.21112 223.65006 455.52086 221.3044 443.75 209.40625 C 438.02364 203.55264 435.98647 200.43894 436.75 198.59375 C 437.38626 196.81222 439.9324 197.65317 450.8125 203.125 C 462.71062 209.16949 466.15088 210.37502 471.75 210.375 C 476.71284 210.375 479.88344 209.35982 482.9375 206.6875 C 487.58221 202.74268 488.73931 198.26947 485.8125 195.40625 C 483.52196 193.05208 478.99637 193.23623 473.90625 195.78125 C 471.42483 196.99015 468.63431 197.90291 466.34375 198.09375 C 458.32685 198.85726 446.54223 194.38602 440.625 188.46875 C 436.68018 184.52391 434.79336 180.83731 435.875 179.4375 C 437.02029 178.16498 438.79729 178.37362 443.1875 180.21875 C 451.84068 183.90907 455.97773 184.90628 462.53125 184.90625 C 469.84828 184.90625 474.29474 183.78185 480.59375 180.21875 C 485.49297 177.54643 488.68751 174.10534 488.6875 171.6875 C 488.6875 170.73311 488.10614 169.02031 487.40625 167.875 C 485.56109 164.88455 482.23651 165.00171 475.9375 168.4375 C 463.594 175.18188 455.09068 176.14025 446.4375 171.75 C 442.81081 169.90484 436.56055 163.99385 434.90625 160.8125 C 433.95186 158.84009 433.95298 158.5783 434.84375 157.6875 C 435.98902 156.54223 436.83107 156.65685 446.375 160.15625 C 451.14698 161.87416 453.24463 162.3404 458.84375 162.53125 C 466.35164 162.84938 470.85078 162.07182 475.75 159.78125 C 482.30351 156.79082 488.68751 149.02313 488.6875 144.1875 C 488.6875 141.83331 487.21228 138.79141 485.8125 138.21875 C 483.01295 137.1371 481.48285 137.82633 477.15625 142.34375 C 470.41187 149.2154 463.71934 151.84377 453.09375 151.84375 C 441.76827 151.78012 437.125 150.04423 437.125 145.78125 C 437.125 142.85443 439.35529 141.07493 444 140.375 C 458.06142 138.08446 474.3457 130.70553 483.0625 122.625 C 488.21622 117.85302 490.18863 114.47836 490.125 110.40625 C 490.06137 105.76154 488.03295 102.64301 484.40625 101.625 C 481.22494 100.73422 478.86995 102.19116 475.625 107.28125 C 470.15315 115.8708 464.62559 120.59288 454 125.9375 C 447.82826 128.99156 437.97016 132.35053 436.125 131.96875 C 435.55235 131.8415 434.66526 130.71343 434.15625 129.25 C 432.62922 124.92342 432.36262 124.85893 426 127.53125 C 422.81867 128.93103 416.33561 131.40709 411.5 133.125 C 401.8288 136.56081 398.57179 138.67008 396.28125 143.1875 C 395.13598 145.41443 394.875 146.94202 394.875 153.75 C 394.81137 161.0034 394.64754 161.87249 393.375 163.78125 C 391.40259 166.51718 389.79083 167.28128 385.71875 167.28125 C 379.8015 167.28125 376.56926 163.77679 376.1875 156.96875 C 375.86937 151.43325 376.82657 146.72416 379.5625 141.125 C 382.2348 135.46227 385.33276 132.03746 391.25 128.15625 C 396.84912 124.46593 402.26659 122.76354 410.15625 122 C 417.21877 121.36374 424.40709 118.65569 426.125 115.15625 C 418.89947 117.31058 411.64497 114.20961 412.28125 113.84375 C 412.91751 113.4779 425.78265 113.53461 427.46875 113.34375 C 432.87698 112.77111 434.97832 111.25704 437.96875 109.09375 C 441.40458 106.61233 443.70327 104.30941 442.8125 102.71875 C 441.92173 101.00084 439.37528 101.30885 437.59375 103.28125 C 436.70298 104.29927 435.05153 106.1326 433.90625 107.46875 C 431.87021 109.75929 431.42063 109.95185 425.3125 110.90625 C 420.65486 111.55444 419.79275 111.55444 417.15625 110.90625 C 416.26548 110.26999 415.5 109.50564 415.5 109.1875 C 415.5 108.29673 418.05208 106.85275 420.40625 106.34375 C 422.12416 106.02562 425.90432 107.31858 429.0625 108.21875 C 428.35865 106.45014 428.36289 106.28716 427.28125 104.1875 C 425.75422 101.19707 423.02675 100.09713 416.21875 99.90625 C 411.44677 99.71537 409.89302 99.39077 408.875 98.5 C 408.11149 97.80011 406.98114 96.97551 406.28125 96.59375 C 405.47001 96.14837 404.2823 95.91675 402.84375 95.875 C 398.5281 95.74974 391.83363 97.35558 385.34375 100.21875 C 381.78067 101.80942 380.19032 102.1875 376.5 102.1875 C 373.95495 102.1875 370.77478 101.88176 369.375 101.5 C 364.2849 100.16383 363.34375 100.10695 363.34375 101.125 C 363.34375 102.3339 367.66131 106.28323 370.90625 107.9375 C 372.6878 108.82827 373.38063 109.51998 373.0625 110.15625 C 372.61712 111.49242 367.70918 114.79447 364.71875 115.8125 C 361.66468 116.89415 361.75392 118.09684 365.0625 119.6875 C 366.5259 120.38739 367.71762 121.27449 367.78125 121.65625 C 367.84488 123.50143 361.48818 127.65626 358.625 127.65625 C 355.06193 127.65625 356.40005 130.45413 360.28125 131.28125 C 362.44456 131.72663 362.44005 131.96285 360.53125 134.0625 C 358.43159 136.4803 356.53716 137.32041 354.4375 136.875 C 352.08333 136.36599 351.6326 137.26862 352.96875 139.75 C 354.0504 141.65879 354.05152 141.76664 352.90625 142.59375 C 352.37117 143.00042 351.70035 143.2639 351 143.40625 C 350.86461 143.43377 350.73002 143.47952 350.59375 143.5 C 350.39719 143.52955 350.19847 143.5287 350 143.53125 C 349.80135 143.52871 349.60446 143.52471 349.40625 143.5 C 349.26998 143.47952 349.13539 143.43377 349 143.40625 C 348.29965 143.2639 347.62883 143.00042 347.09375 142.59375 C 345.94848 141.76664 345.9496 141.65879 347.03125 139.75 C 348.3674 137.26862 347.91667 136.36599 345.5625 136.875 C 343.46284 137.32041 341.56841 136.4803 339.46875 134.0625 C 337.55995 131.96285 337.55544 131.72663 339.71875 131.28125 C 343.59995 130.45413 344.93807 127.65625 341.375 127.65625 C 338.51182 127.65626 332.15512 123.50143 332.21875 121.65625 C 332.28238 121.27449 333.4741 120.38739 334.9375 119.6875 C 338.24608 118.09684 338.33532 116.89415 335.28125 115.8125 C 332.29082 114.79447 327.38288 111.49242 326.9375 110.15625 C 326.61937 109.51998 327.3122 108.82827 329.09375 107.9375 C 332.33869 106.28323 336.65625 102.3339 336.65625 101.125 C 336.65625 100.10695 335.7151 100.16383 330.625 101.5 C 329.22522 101.88176 326.04505 102.1875 323.5 102.1875 C 319.80968 102.1875 318.21933 101.80942 314.65625 100.21875 C 308.16637 97.35558 301.4719 95.74974 297.15625 95.875 z M 302.15625 105.25 C 304.95045 105.11903 302.4059 107.71491 303.75 108.59375 C 305.40428 109.67539 309.47592 104.09335 307.09375 110.46875 C 305.75759 111.55042 298.74127 111.0549 297.46875 109.71875 C 296.19623 108.44621 297.21396 106.19426 299.25 105.8125 C 300.57531 105.4348 301.51144 105.28022 302.15625 105.25 z M 397.375 105.25 C 397.51018 105.23797 397.66911 105.24181 397.84375 105.25 C 398.48856 105.28022 399.42469 105.4348 400.75 105.8125 C 402.78604 106.19426 403.80377 108.44621 402.53125 109.71875 C 401.25873 111.0549 394.24241 111.55042 392.90625 110.46875 C 390.52408 104.09335 394.59572 109.67539 396.25 108.59375 C 397.51009 107.76984 395.34728 105.43049 397.375 105.25 z" transform="translate(-350,-250)" id="righthalf"></path>
</svg>