<svg xmlns:svg="http://www.w3.org/2000/svg" xmlns="http://www.w3.org/2000/svg" version="1.0" width="2800" height="1400" id="Flag of Macedonia">
  <rect width="2800" height="1400" id="red field" style="fill:#d20000"></rect>
  <polygon points="0,0 420,0 2380,1400 2800,1400 0,0" transform="translate(0,1.4e-5)" id="yellow ray 1" style="fill:#ffe600"></polygon>
  <polygon points="1260,1400 1540,1400 1260,0 1260,0 1540,0" transform="translate(0,1.4e-5)" id="yellow ray 2" style="fill:#ffe600"></polygon>
  <polygon points="2380,0 680,0 2800,0 0,1400 420,1400" transform="translate(0,1.4e-5)" id="yellow ray 3" style="fill:#ffe600"></polygon>
  <polygon points="2800,560 2800,840 0,560 0,560 0,840" transform="translate(0,1.4e-5)" id="yellow ray 4" style="fill:#ffe600"></polygon>
<circle fill="#d20000" cx="1400" cy="700" r="250"></circle>
<circle fill="#ffe600" cx="1400" cy="700" r="200"></circle>
</svg>